<svg xmlns="http://www.w3.org/2000/svg" width="60" height="52" viewBox="0 0 60 52">
  <defs>
    <style>
      .cls-1 {
        fill: #fff;
        fill-rule: evenodd;
      }
    </style>
  </defs>
  <path id="P55.svg" class="cls-1" d="M1893,2697v-2h2v2h-2Zm-2-24v2h-12v-9h2v7h10Zm-14,13h-2v-2h2v2Zm-34-16h-2v-2h2v2Zm48,22h-1.05a5.575,5.575,0,0,1-1.25,3h2.3v2h-51v-2h6.3a5.575,5.575,0,0,1-1.25-3H1844a3.009,3.009,0,0,1-3-3v-15h-6v-2h10v2h-2v15a1,1,0,0,0,1,1h1.23a5.472,5.472,0,0,1,10.54,0h23.46a5.472,5.472,0,0,1,10.54,0H1891a2.006,2.006,0,0,0,2-2v-5h-4a1.991,1.991,0,0,1-1.79-1.1l-1-2.01A2,2,0,0,1,1888,2677h5v-2c0-4.59-2.66-11-7-11h-9v18h-2v-21a2.006,2.006,0,0,0-2-2h-28a2.006,2.006,0,0,0-2,2v5h-2v-5a4,4,0,0,1,4-4h28a4,4,0,0,1,4,4v1h9c5.79,0,9,7.69,9,13v13A4,4,0,0,1,1891,2692Zm-40.5-4a3.5,3.5,0,1,0,3.5,3.5A3.5,3.5,0,0,0,1850.5,2688Zm28.55,4h-23.1a5.575,5.575,0,0,1-1.25,3h25.6A5.575,5.575,0,0,1,1879.05,2692Zm5.45-4a3.5,3.5,0,1,0,3.5,3.5A3.5,3.5,0,0,0,1884.5,2688Zm8.5-9h-5l1,2h4v-2Zm-24-30h17v2h-17v-2Zm-3,4h2v2h-2v-2Zm-17,0h15v2h-15v-2Zm28,48h-18v-2h18v2Z" transform="translate(-1835 -2649)"/>
</svg>

