<svg xmlns="http://www.w3.org/2000/svg" width="51.97" height="59" viewBox="0 0 51.97 59">
  <defs>
    <style>
      .cls-1 {
        fill: #fff;
        fill-rule: evenodd;
      }
    </style>
  </defs>
  <path id="P33.svg" class="cls-1" d="M1701.47,2761.97a5.03,5.03,0,1,1,5.03,4.99A5.019,5.019,0,0,1,1701.47,2761.97Zm8.05,0a3.02,3.02,0,1,0-3.02,3A3,3,0,0,0,1709.52,2761.97Zm5.51,8.51,5.89,9.7-1.73,1.02-5.56-9.16-7.13,7.95-9.2-10.26a12.009,12.009,0,0,1-2.25-3.98l-2.89,2.87,2.6,3.43-1.61,1.2-8.66-11.43a2.206,2.206,0,0,0-3.32-.1l-10.7,12.54-1.54-1.29,10.7-12.54a4.164,4.164,0,0,1,6.47.19l4.84,6.39,3.59-3.56a12.08,12.08,0,0,1,19.5-10.85l-1.26,1.56a10.082,10.082,0,0,0-16.33,7.81,9.9,9.9,0,0,0,2.38,6.45l7.68,8.57,7.7-8.58a9.947,9.947,0,0,0,2.02-9.06l1.94-.52a11.935,11.935,0,0,1-2.44,10.89Zm-0.54-14.58,1.6-1.22a12.3,12.3,0,0,1,1.02,1.56l-1.77.95A9.9,9.9,0,0,0,1714.49,2755.9Zm-23.62,23.16,1.69,0.9-1.7.87c-15.79,8.06-16.56,9.77-16.57,12.09,0,0.84,1.11,1.76,3.3,2.71l-0.81,1.83c-1.93-.85-4.5-2.23-4.5-4.54,0-3.61,2.14-5.85,15.89-12.96a11.524,11.524,0,0,0-4.82-1.02,21.435,21.435,0,0,0-13.2,4.3l-1.19-1.61a23.673,23.673,0,0,1,14.39-4.68A14.884,14.884,0,0,1,1690.87,2779.06Zm-9.32,18.04-0.64,1.89c-0.58-.19-1.15-0.39-1.7-0.58l0.68-1.88C1680.43,2796.72,1680.99,2796.91,1681.55,2797.1Zm1.6,2.63,0.64-1.89c4.72,1.58,8.62,3.12,8.62,6.06,0,3.28-5.31,4.54-7.59,4.93l-0.35-1.96c2.95-.51,5.93-1.69,5.93-2.97C1690.4,2802.16,1685.68,2800.58,1683.15,2799.73Zm1.21-7.81c0-2.96,3.97-5.66,8.58-8.79l0.51-.35a10.7,10.7,0,0,1,6.01-1.84c6.08,0.18,11.69,2.71,19.41,8.74l-1.24,1.57c-7.35-5.74-12.62-8.15-18.2-8.31a8.58,8.58,0,0,0-4.84,1.49l-0.52.35c-3.78,2.57-7.7,5.23-7.7,7.14,0,1.8,3.07,2.23,8.09,2.77,4.08,0.44,9.16,1,13.84,2.92,7.06,2.91,9.49,10.47,9.59,10.79l-1.92.59c-0.02-.06-2.27-6.99-8.44-9.53-4.42-1.82-9.34-2.36-13.29-2.78C1688.72,2796.08,1684.36,2795.6,1684.36,2791.92Z" transform="translate(-1668.94 -2750)"/>
</svg>

