<svg xmlns="http://www.w3.org/2000/svg" width="58" height="55" viewBox="0 0 58 55">
  <defs>
    <style>
      .cls-1 {
        fill: #fff;
        fill-rule: evenodd;
      }
    </style>
  </defs>
  <path id="P22.svg" class="cls-1" d="M2273,2670v-2h2v2h-2Zm54.74-7.82-14.02,11.69a7.943,7.943,0,0,1-2.77,1.5l-10.08,3.1a12.013,12.013,0,0,1-3.52.53H2279a3.009,3.009,0,0,1-3,3h-5v-2h5a1,1,0,0,0,1-1v-12a1,1,0,0,0-1-1h-5v-2h5a3.009,3.009,0,0,1,3,3h0.98a0.971,0.971,0,0,0,.78-0.38c1.76-2.29,6.55-7.62,13.24-7.62h14a4,4,0,0,1,4,4,0.433,0.433,0,0,1-.01.05l11.8-6.6a3.425,3.425,0,0,1,1.72-.45A3.494,3.494,0,0,1,2327.74,2662.18Zm-2.23-4.18a1.566,1.566,0,0,0-.74.19l-14.82,8.3-0.01-.02a3.861,3.861,0,0,1-1.94.53h-12v-2h12a2,2,0,0,0,0-4h-14c-5.79,0-10.07,4.78-11.65,6.83a2.956,2.956,0,0,1-2.37,1.17H2279v8h18.35a10.169,10.169,0,0,0,2.94-.44l10.07-3.1a6.014,6.014,0,0,0,2.08-1.13l14.02-11.69A1.491,1.491,0,0,0,2325.51,2658Zm-11.76-3.38v0.01c-4.05,2.02-4.05,2.03-4.09,2.04a3.48,3.48,0,0,1-1.52.34c-2.19,0-4.65-1.87-6.09-4.88-1.77-3.68-1.24-7.53,1.2-8.75l4-2.01v0.01c0.02-.01.03-0.03,0.05-0.04,2.5-1.19,5.86.8,7.65,4.53a8.814,8.814,0,0,1,.71,6.47A3.915,3.915,0,0,1,2313.75,2654.62Zm-8.65-9.93-0.95.47c-1.26.63-1.68,3.23-.3,6.1s3.73,4.19,4.98,3.59c0.04-.02.45-0.22,1-0.5a9.285,9.285,0,0,1-3.78-4.22A9.435,9.435,0,0,1,2305.1,2644.69Zm8.05,2.05c-1.16-2.41-3.01-3.73-4.32-3.73a1.421,1.421,0,0,0-.66.14,1.9,1.9,0,0,0-.94,1.17,6.876,6.876,0,0,0,.62,4.94c1.38,2.86,3.73,4.19,4.98,3.59a1.9,1.9,0,0,0,.94-1.17A6.876,6.876,0,0,0,2313.15,2646.74ZM2309,2633h2v6h-2v-6Zm-4,2h2v2h-2v-2Zm0-8h2v6h-2v-6Zm-10,25v-6h2v6h-2Zm-2,5h-2v-4h2v4Zm1.02-13a4.006,4.006,0,0,1-2.91-1.11l-3-3a4.435,4.435,0,0,1-.93-4.35,10.752,10.752,0,0,1,7.36-7.36,4.459,4.459,0,0,1,4.35.93l3,3c2.01,2.01,1.22,5.96-1.8,8.98A9.074,9.074,0,0,1,2294.02,2644Zm3.46-13.48a2.083,2.083,0,0,0-1.49-.52,4.621,4.621,0,0,0-.99.12,8.889,8.889,0,0,0-5.88,5.88,2.145,2.145,0,0,0,2.88,2.88,8.876,8.876,0,0,0,5.88-5.89A2.7,2.7,0,0,0,2297.48,2630.52Zm3,3-0.59-.58a4.966,4.966,0,0,1-.07.52,10.752,10.752,0,0,1-7.36,7.36,4.8,4.8,0,0,1-.5.09l0.56,0.57c1.03,1.03,3.81.54,6.16-1.81C2300.79,2637.56,2301.63,2634.68,2300.48,2633.52Z" transform="translate(-2271 -2627)"/>
</svg>

