<svg xmlns="http://www.w3.org/2000/svg" width="54.16" height="54.25" viewBox="0 0 54.16 54.25">
  <defs>
    <style>
      .cls-1 {
        fill: #fff;
        fill-rule: evenodd;
      }
    </style>
  </defs>
  <path id="P44.svg" class="cls-1" d="M2323.11,2768.2l-1.86-.76c2.52-6.15,2.55-11.1.08-13.58a5.87,5.87,0,0,0-2.23-1.37l0.66-1.9a7.832,7.832,0,0,1,2.99,1.85C2325.86,2755.57,2325.99,2761.17,2323.11,2768.2Zm-9.68-16.01-0.28-1.99a15.87,15.87,0,0,1,3.98-.12l-0.21,2A13.9,13.9,0,0,0,2313.43,2752.19Zm-6.53-.25a31.794,31.794,0,0,1,3.73-1.23l0.5,1.94a31.521,31.521,0,0,0-3.49,1.15Zm7.23,14.76,1,1.74-3.32,1.92-1-1.74Zm3.02,9.42v2.01h-4.01v-2.01h4.01Zm-6.33,9.52,1.01-1.74,3.3,1.91-1,1.74Zm10.34-8.52a23.211,23.211,0,0,1-13.31,20.95l-0.85-1.82a21.1,21.1,0,0,0-8.89-40.22,20.9,20.9,0,0,0-11.25,3.27l-1.08-1.7A23.056,23.056,0,0,1,2321.16,2777.12Zm-38.44-22.3a26.721,26.721,0,0,1,3.65-2.13l0.87,1.81a23.824,23.824,0,0,0-3.38,1.97Zm1.69,6.29c-0.47.41-.92,0.83-1.33,1.25l-1.44-1.4c0.46-.47.95-0.93,1.46-1.37Zm-10.64,10.03-1.95-.48a27,27,0,0,1,8.37-13.86l1.33,1.51A24.892,24.892,0,0,0,2273.77,2771.14Zm1.02,15.66a29.912,29.912,0,0,0-1.13,3.49l-1.95-.49a31.554,31.554,0,0,1,1.21-3.73Zm-1.67,9.19-1.99.21a15.637,15.637,0,0,1,.11-4.01l1.98,0.29A14.009,14.009,0,0,0,2273.12,2795.99Zm18.24-32.59-1.74,1-1.91-3.32,1.74-1Zm0.01,27.44-1.92,3.34-1.74-1,1.92-3.35Zm-3,7.23a23.153,23.153,0,0,1-9-34.41l1.63,1.17a20.972,20.972,0,0,0-3.94,12.29,21.188,21.188,0,0,0,12.16,19.13Zm-2.96-29.45-1,1.74-3.32-1.92,1-1.74Zm-0.01,17.02-3.31,1.91-1-1.74,3.3-1.91Zm-6.33-9.52h4.01v2.01h-4.01v-2.01Zm20.04-17.07v18.49l-7.91,7.93-1.42-1.42,7.33-7.34v-17.66h2Zm7.66,1.03,1.74,1-1.91,3.32-1.74-1Zm-31.87,40.31c4.25,4.34,15.61.66,26.9-8.54l-3.78-.7,0.37-1.98,6.84,1.28-1.1,6.82-1.98-.32,0.52-3.21c-8.42,6.78-16.6,10.49-22.56,10.49a8.965,8.965,0,0,1-6.64-2.43,7.983,7.983,0,0,1-1.83-2.96l1.89-.67A5.939,5.939,0,0,0,2274.9,2800.39Zm38.6-.96a27.793,27.793,0,0,1-3.65,2.13l-0.87-1.81a24.82,24.82,0,0,0,3.38-1.97Zm8.95-16.32,1.95,0.47a27,27,0,0,1-8.37,13.86l-1.33-1.5A24.972,24.972,0,0,0,2322.45,2783.11Z" transform="translate(-2271.03 -2750)"/>
</svg>

